<svg width="37" height="32" viewBox="0 0 37 32" fill="none" xmlns="http://www.w3.org/2000/svg">
<g clip-path="url(#clip0_10081_68937)">
<path d="M17.2133 30.5942C25.375 30.5942 31.9917 23.9774 31.9917 15.7865C31.9917 7.59568 25.375 0.978882 17.2133 0.978882C9.05161 0.978882 2.43481 7.59568 2.43481 15.7865C2.43481 23.9774 9.05161 30.5942 17.2133 30.5942Z" fill="#F1F5F9" stroke="#D6DFE8" stroke-width="0.582978" stroke-miterlimit="10"/>
<path d="M33.6829 9.69429C34.3431 9.69429 34.878 9.15923 34.878 8.49918C34.878 7.83916 34.3431 7.30408 33.6829 7.30408C33.023 7.30408 32.4878 7.83916 32.4878 8.49918C32.4878 9.15923 33.023 9.69429 33.6829 9.69429Z" fill="#133986"/>
<path d="M35.4319 5.00136C35.8825 5.00136 36.2481 4.63595 36.2481 4.18519C36.2481 3.73443 35.8825 3.36902 35.4319 3.36902C34.981 3.36902 34.6157 3.73443 34.6157 4.18519C34.6157 4.63595 34.981 5.00136 35.4319 5.00136Z" fill="#D6DFE8"/>
<path d="M1.41553 10.5396C1.86629 10.5396 2.2317 10.1742 2.2317 9.7234C2.2317 9.27264 1.86629 8.90723 1.41553 8.90723C0.964776 8.90723 0.599365 9.27264 0.599365 9.7234C0.599365 10.1742 0.964776 10.5396 1.41553 10.5396Z" fill="#D5DEE7"/>
<path d="M2.93029 28.2913C3.76742 28.2913 4.44603 27.6126 4.44603 26.7755C4.44603 25.9384 3.76742 25.2598 2.93029 25.2598C2.09317 25.2598 1.41455 25.9384 1.41455 26.7755C1.41455 27.6126 2.09317 28.2913 2.93029 28.2913Z" fill="#133986"/>
<g filter="url(#filter0_d_10081_68937)">
<path d="M30.9137 9.86916H5.6417C5.08787 9.86916 4.65063 9.43192 4.65063 8.87809V3.19407C4.65063 2.64024 5.08787 2.203 5.6417 2.203H30.8845C31.4384 2.203 31.8756 2.64024 31.8756 3.19407V8.87809C31.9047 9.43192 31.4384 9.86916 30.9137 9.86916Z" fill="white"/>
</g>
<g filter="url(#filter1_d_10081_68937)">
<path d="M30.9132 28.9982H5.64121C5.08738 28.9982 4.65015 28.561 4.65015 28.0071V22.3231C4.65015 21.7693 5.08738 21.332 5.64121 21.332H30.884C31.4379 21.332 31.8751 21.7693 31.8751 22.3231V28.0071C31.9043 28.561 31.4379 28.9982 30.9132 28.9982Z" fill="white"/>
</g>
<path d="M7.97634 24.1793H6.09287C5.95834 24.1793 5.86865 23.9461 5.86865 23.7906V23.402C5.86865 23.1688 6.00318 23.0133 6.09287 23.0133H7.97634C8.11088 23.0133 8.20056 23.2465 8.20056 23.402V23.7906C8.20056 23.9461 8.11088 24.1793 7.97634 24.1793Z" fill="#D6DFE8"/>
<path d="M20.5142 24.1793H9.58677C9.45458 24.1793 9.36646 23.9461 9.36646 23.7906V23.402C9.36646 23.1688 9.49864 23.0133 9.58677 23.0133H20.5142C20.6464 23.0133 20.7345 23.2465 20.7345 23.402V23.7906C20.7345 23.9461 20.6464 24.1793 20.5142 24.1793Z" fill="#F1F5F9"/>
<path d="M7.97634 27.6772H6.09287C5.95834 27.6772 5.86865 27.4441 5.86865 27.2885V26.8999C5.86865 26.6667 6.00318 26.5112 6.09287 26.5112H7.97634C8.11088 26.5112 8.20056 26.7444 8.20056 26.8999V27.2885C8.20056 27.5218 8.11088 27.6772 7.97634 27.6772Z" fill="#D6DFE8"/>
<path d="M15.4877 27.2885C15.4877 27.5218 15.3547 27.6772 15.2659 27.6772H9.58824C9.45517 27.6772 9.36646 27.4441 9.36646 27.2885V26.8999C9.36646 26.6667 9.49953 26.5112 9.58824 26.5112H15.2659C15.399 26.5112 15.4877 26.7444 15.4877 26.8999V27.2885Z" fill="#F1F5F9"/>
<path d="M30.5851 23.5009C30.5851 23.0707 30.2363 22.7219 29.8061 22.7219H24.4288C23.9986 22.7219 23.6499 23.0707 23.6499 23.5009V23.6058C23.6499 24.0359 23.9986 24.3847 24.4288 24.3847H29.8061C30.2363 24.3847 30.5851 24.0359 30.5851 23.6058V23.5009Z" fill="#F9F9F9"/>
<path d="M27.6809 23.4184C27.6809 23.2819 27.5702 23.1713 27.4337 23.1713H26.0252C25.8887 23.1713 25.7781 23.2819 25.7781 23.4184C25.7781 23.5549 25.8887 23.6656 26.0252 23.6656H27.4337C27.5702 23.6656 27.6809 23.5549 27.6809 23.4184Z" fill="#D6DFE8"/>
<path d="M30.0847 23.4184C30.0847 23.2819 29.974 23.1713 29.8375 23.1713H29.6559C29.5193 23.1713 29.4087 23.2819 29.4087 23.4184C29.4087 23.5549 29.5193 23.6656 29.6559 23.6656H29.8375C29.974 23.6656 30.0847 23.5549 30.0847 23.4184Z" fill="#D6DFE8"/>
<g filter="url(#filter2_d_10081_68937)">
<path d="M26.6373 19.3212H1.36533C0.811501 19.3212 0.374268 18.8839 0.374268 18.3301V12.6461C0.374268 12.0923 0.811501 11.655 1.36533 11.655H26.6082C27.162 11.655 27.5992 12.0923 27.5992 12.6461V18.3301C27.6284 18.8839 27.162 19.3212 26.6373 19.3212Z" fill="white"/>
</g>
<path d="M3.70047 14.5023H1.81699C1.68246 14.5023 1.59277 14.2691 1.59277 14.1136V13.725C1.59277 13.4918 1.72731 13.3363 1.81699 13.3363H3.70047C3.835 13.3363 3.92469 13.5695 3.92469 13.725V14.1136C3.92469 14.2691 3.835 14.5023 3.70047 14.5023Z" fill="#D6DFE8"/>
<path d="M16.2383 14.5023H5.31089C5.1787 14.5023 5.09058 14.2691 5.09058 14.1136V13.725C5.09058 13.4918 5.22276 13.3363 5.31089 13.3363H16.2383C16.3705 13.3363 16.4586 13.5695 16.4586 13.725V14.1136C16.4586 14.2691 16.3705 14.5023 16.2383 14.5023Z" fill="#F1F5F9"/>
<path d="M3.70047 18.0002H1.81699C1.68246 18.0002 1.59277 17.7671 1.59277 17.6115V17.2229C1.59277 16.9897 1.72731 16.8342 1.81699 16.8342H3.70047C3.835 16.8342 3.92469 17.0674 3.92469 17.2229V17.6115C3.92469 17.8448 3.835 18.0002 3.70047 18.0002Z" fill="#D6DFE8"/>
<path d="M11.2118 17.6115C11.2118 17.8448 11.0788 18.0002 10.9901 18.0002H5.31236C5.17929 18.0002 5.09058 17.7671 5.09058 17.6115V17.2229C5.09058 16.9897 5.22365 16.8342 5.31236 16.8342H10.9901C11.1231 16.8342 11.2118 17.0674 11.2118 17.2229V17.6115Z" fill="#F1F5F9"/>
<path d="M26.3092 13.8239C26.3092 13.3937 25.9604 13.0449 25.5302 13.0449H20.153C19.7228 13.0449 19.374 13.3937 19.374 13.8239V13.9288C19.374 14.3589 19.7228 14.7077 20.153 14.7077H25.5302C25.9604 14.7077 26.3092 14.3589 26.3092 13.9288V13.8239Z" fill="#F9F9F9"/>
<path d="M23.405 13.7413C23.405 13.6048 23.2943 13.4941 23.1578 13.4941H21.7494C21.6129 13.4941 21.5022 13.6048 21.5022 13.7413C21.5022 13.8778 21.6129 13.9885 21.7494 13.9885H23.1578C23.2943 13.9885 23.405 13.8778 23.405 13.7413Z" fill="#D6DFE8"/>
<path d="M25.8088 13.7413C25.8088 13.6048 25.6981 13.4941 25.5616 13.4941H25.38C25.2435 13.4941 25.1328 13.6048 25.1328 13.7413C25.1328 13.8778 25.2435 13.9885 25.38 13.9885H25.5616C25.6981 13.9885 25.8088 13.8778 25.8088 13.7413Z" fill="#D6DFE8"/>
<path d="M30.0354 17.1455C30.0677 17.0297 30.1254 16.9284 30.1976 16.8018C30.4428 16.3712 30.8365 16.0922 31.4799 16.0225L32.0185 15.9603C32.3475 15.9128 32.5642 15.7679 32.7084 15.5146C32.9104 15.1599 32.859 14.6611 32.3271 14.3582C31.7698 14.0408 31.2569 14.3525 31.0117 14.7831C30.954 14.8844 30.9107 14.9604 30.8928 15.0508L29.894 14.4485C29.9264 14.3328 29.9732 14.1917 30.0453 14.0651C30.5357 13.2039 31.6306 12.7539 32.821 13.4319C34.0369 14.1243 34.2483 15.2845 33.8011 16.0697C33.4405 16.703 32.866 16.9461 32.2225 17.0157L31.7634 17.0562C31.3694 17.1001 31.0732 17.2669 30.9001 17.5708L30.8712 17.6215L30.0354 17.1455ZM30.1775 17.8973C30.5321 18.0992 30.652 18.5365 30.4501 18.8911C30.2482 19.2458 29.8109 19.3657 29.4562 19.1638C29.1016 18.9618 28.9817 18.5245 29.1836 18.1699C29.3965 17.855 29.8229 17.6953 30.1775 17.8973Z" fill="#EB9700"/>
<path d="M7.97634 5.05036H6.09287C5.95834 5.05036 5.86865 4.81716 5.86865 4.6617V4.27305C5.86865 4.03986 6.00318 3.8844 6.09287 3.8844H7.97634C8.11088 3.8844 8.20056 4.11759 8.20056 4.27305V4.6617C8.20056 4.81716 8.11088 5.05036 7.97634 5.05036Z" fill="#D6DFE8"/>
<path d="M20.5142 5.05036H9.58677C9.45458 5.05036 9.36646 4.81716 9.36646 4.6617V4.27305C9.36646 4.03986 9.49864 3.8844 9.58677 3.8844H20.5142C20.6464 3.8844 20.7345 4.11759 20.7345 4.27305V4.6617C20.7345 4.81716 20.6464 5.05036 20.5142 5.05036Z" fill="#F1F5F9"/>
<path d="M7.97634 8.54828H6.09287C5.95834 8.54828 5.86865 8.31517 5.86865 8.15963V7.77098C5.86865 7.53779 6.00318 7.38232 6.09287 7.38232H7.97634C8.11088 7.38232 8.20056 7.61552 8.20056 7.77098V8.15963C8.20056 8.3929 8.11088 8.54828 7.97634 8.54828Z" fill="#D6DFE8"/>
<path d="M15.4877 8.15963C15.4877 8.3929 15.3547 8.54828 15.2659 8.54828H9.58824C9.45517 8.54828 9.36646 8.31517 9.36646 8.15963V7.77098C9.36646 7.53779 9.49953 7.38232 9.58824 7.38232H15.2659C15.399 7.38232 15.4877 7.61552 15.4877 7.77098V8.15963Z" fill="#F1F5F9"/>
<path d="M30.5851 4.37183C30.5851 3.94164 30.2363 3.5929 29.8061 3.5929H24.4288C23.9986 3.5929 23.6499 3.94164 23.6499 4.37183V4.47673C23.6499 4.90692 23.9986 5.25566 24.4288 5.25566H29.8061C30.2363 5.25566 30.5851 4.90692 30.5851 4.47673V4.37183Z" fill="#F9F9F9"/>
<path d="M27.6809 4.2894C27.6809 4.15289 27.5702 4.04224 27.4337 4.04224H26.0252C25.8887 4.04224 25.7781 4.15289 25.7781 4.2894C25.7781 4.4259 25.8887 4.53656 26.0252 4.53656H27.4337C27.5702 4.53656 27.6809 4.4259 27.6809 4.2894Z" fill="#D6DFE8"/>
<path d="M30.0847 4.2894C30.0847 4.15289 29.974 4.04224 29.8375 4.04224H29.6559C29.5193 4.04224 29.4087 4.15289 29.4087 4.2894C29.4087 4.4259 29.5193 4.53656 29.6559 4.53656H29.8375C29.974 4.53656 30.0847 4.4259 30.0847 4.2894Z" fill="#D6DFE8"/>
</g>
<defs>
<filter id="filter0_d_10081_68937" x="-15.3494" y="-9.797" width="67.2263" height="47.6661" filterUnits="userSpaceOnUse" color-interpolation-filters="sRGB">
<feFlood flood-opacity="0" result="BackgroundImageFix"/>
<feColorMatrix in="SourceAlpha" type="matrix" values="0 0 0 0 0 0 0 0 0 0 0 0 0 0 0 0 0 0 127 0" result="hardAlpha"/>
<feMorphology radius="4" operator="erode" in="SourceAlpha" result="effect1_dropShadow_10081_68937"/>
<feOffset dy="8"/>
<feGaussianBlur stdDeviation="12"/>
<feColorMatrix type="matrix" values="0 0 0 0 0 0 0 0 0 0.144828 0 0 0 0 0.45 0 0 0 0.06 0"/>
<feBlend mode="normal" in2="BackgroundImageFix" result="effect1_dropShadow_10081_68937"/>
<feBlend mode="normal" in="SourceGraphic" in2="effect1_dropShadow_10081_68937" result="shape"/>
</filter>
<filter id="filter1_d_10081_68937" x="-15.3499" y="9.33203" width="67.2263" height="47.6661" filterUnits="userSpaceOnUse" color-interpolation-filters="sRGB">
<feFlood flood-opacity="0" result="BackgroundImageFix"/>
<feColorMatrix in="SourceAlpha" type="matrix" values="0 0 0 0 0 0 0 0 0 0 0 0 0 0 0 0 0 0 127 0" result="hardAlpha"/>
<feMorphology radius="4" operator="erode" in="SourceAlpha" result="effect1_dropShadow_10081_68937"/>
<feOffset dy="8"/>
<feGaussianBlur stdDeviation="12"/>
<feColorMatrix type="matrix" values="0 0 0 0 0 0 0 0 0 0.144828 0 0 0 0 0.45 0 0 0 0.06 0"/>
<feBlend mode="normal" in2="BackgroundImageFix" result="effect1_dropShadow_10081_68937"/>
<feBlend mode="normal" in="SourceGraphic" in2="effect1_dropShadow_10081_68937" result="shape"/>
</filter>
<filter id="filter2_d_10081_68937" x="-19.6257" y="-0.344971" width="67.2263" height="47.6661" filterUnits="userSpaceOnUse" color-interpolation-filters="sRGB">
<feFlood flood-opacity="0" result="BackgroundImageFix"/>
<feColorMatrix in="SourceAlpha" type="matrix" values="0 0 0 0 0 0 0 0 0 0 0 0 0 0 0 0 0 0 127 0" result="hardAlpha"/>
<feMorphology radius="4" operator="erode" in="SourceAlpha" result="effect1_dropShadow_10081_68937"/>
<feOffset dy="8"/>
<feGaussianBlur stdDeviation="12"/>
<feColorMatrix type="matrix" values="0 0 0 0 0 0 0 0 0 0.144828 0 0 0 0 0.45 0 0 0 0.06 0"/>
<feBlend mode="normal" in2="BackgroundImageFix" result="effect1_dropShadow_10081_68937"/>
<feBlend mode="normal" in="SourceGraphic" in2="effect1_dropShadow_10081_68937" result="shape"/>
</filter>
<clipPath id="clip0_10081_68937">
<rect width="36.4361" height="30.6063" fill="white" transform="translate(0.017334 0.442261)"/>
</clipPath>
</defs>
</svg>
