<svg width="42" height="36" viewBox="0 0 42 36" fill="none" xmlns="http://www.w3.org/2000/svg">
<path d="M20.7119 30.3897C28.8735 30.3897 35.4903 23.7729 35.4903 15.5821C35.4903 7.39122 28.8735 0.774414 20.7119 0.774414C12.5502 0.774414 5.93335 7.39122 5.93335 15.5821C5.93335 23.7729 12.5502 30.3897 20.7119 30.3897Z" fill="#F1F5F9" stroke="#D6DFE8" stroke-width="0.582978" stroke-miterlimit="10"/>
<path d="M37.1802 9.48994C37.8404 9.48994 38.3753 8.95488 38.3753 8.29484C38.3753 7.63482 37.8404 7.09973 37.1802 7.09973C36.5203 7.09973 35.9851 7.63482 35.9851 8.29484C35.9851 8.95488 36.5203 9.48994 37.1802 9.48994Z" fill="#133986"/>
<path d="M38.9295 4.79701C39.3804 4.79701 39.7456 4.4316 39.7456 3.98084C39.7456 3.53008 39.3804 3.16467 38.9295 3.16467C38.4788 3.16467 38.1133 3.53008 38.1133 3.98084C38.1133 4.4316 38.4788 4.79701 38.9295 4.79701Z" fill="#D6DFE8"/>
<path d="M4.94239 10.3353C5.39315 10.3353 5.75856 9.96993 5.75856 9.51917C5.75856 9.06841 5.39315 8.703 4.94239 8.703C4.49163 8.703 4.12622 9.06841 4.12622 9.51917C4.12622 9.96993 4.49163 10.3353 4.94239 10.3353Z" fill="#D6DFE8"/>
<path d="M6.45715 28.087C7.29426 28.087 7.9729 27.4084 7.9729 26.5713C7.9729 25.7342 7.29426 25.0555 6.45715 25.0555C5.62003 25.0555 4.94141 25.7342 4.94141 26.5713C4.94141 27.4084 5.62003 28.087 6.45715 28.087Z" fill="#133986"/>
<g filter="url(#filter0_d_10081_68929)">
<g filter="url(#filter1_d_10081_68929)">
<path d="M34.9153 6.95057C34.9153 6.52037 34.5666 6.17163 34.1364 6.17163H7.1283C6.69811 6.17163 6.34937 6.52037 6.34937 6.95056V14.1374C6.34937 14.5676 6.69811 14.9163 7.1283 14.9163H34.1364C34.5665 14.9163 34.9153 14.5676 34.9153 14.1374V6.95057Z" fill="white"/>
</g>
<g filter="url(#filter2_d_10081_68929)">
<path d="M34.9153 16.8612C34.9153 16.431 34.5666 16.0823 34.1364 16.0823H7.1283C6.69811 16.0823 6.34937 16.431 6.34937 16.8612V24.048C6.34937 24.4782 6.69811 24.8269 7.1283 24.8269H34.1364C34.5665 24.8269 34.9153 24.4782 34.9153 24.048V16.8612Z" fill="white"/>
<path d="M34.1364 16.228C34.4861 16.228 34.7695 16.5115 34.7695 16.8612V24.048C34.7695 24.3977 34.4861 24.6812 34.1364 24.6812H7.1283C6.7786 24.6812 6.49511 24.3977 6.49511 24.048V16.8612C6.49511 16.5115 6.7786 16.228 7.1283 16.228H34.1364Z" stroke="#D6DFE8" stroke-width="0.291489"/>
</g>
</g>
<path d="M31.8045 20.7238H28.0737C27.7445 20.7238 27.4885 20.4677 27.4885 20.1386C27.4885 19.8094 27.7445 19.5533 28.0737 19.5533H31.8045C32.1337 19.5533 32.3897 19.8094 32.3897 20.1386C32.3897 20.4677 32.1337 20.7238 31.8045 20.7238Z" fill="#D6DFE8"/>
<path d="M11.0801 9.961H9.19663C9.0621 9.961 8.97241 9.72781 8.97241 9.57235V9.1837C8.97241 8.9505 9.10694 8.79504 9.19663 8.79504H11.0801C11.2146 8.79504 11.3043 9.02824 11.3043 9.1837V9.57235C11.3043 9.72781 11.2146 9.961 11.0801 9.961Z" fill="#D6DFE8"/>
<path d="M11.0801 19.2888H9.19663C9.0621 19.2888 8.97241 19.0556 8.97241 18.9001V18.5115C8.97241 18.2783 9.10694 18.1228 9.19663 18.1228H11.0801C11.2146 18.1228 11.3043 18.356 11.3043 18.5115V18.9001C11.3043 19.0556 11.2146 19.2888 11.0801 19.2888Z" fill="#D6DFE8"/>
<path d="M23.618 9.961H12.6905C12.5583 9.961 12.4702 9.72781 12.4702 9.57235V9.1837C12.4702 8.9505 12.6024 8.79504 12.6905 8.79504H23.618C23.7502 8.79504 23.8383 9.02824 23.8383 9.1837V9.57235C23.8383 9.72781 23.7502 9.961 23.618 9.961Z" fill="#F1F5F9"/>
<path d="M23.618 19.2888H12.6905C12.5583 19.2888 12.4702 19.0556 12.4702 18.9001V18.5115C12.4702 18.2783 12.6024 18.1228 12.6905 18.1228H23.618C23.7502 18.1228 23.8383 18.356 23.8383 18.5115V18.9001C23.8383 19.0556 23.7502 19.2888 23.618 19.2888Z" fill="#F1F5F9"/>
<path d="M11.0801 13.4589H9.19663C9.0621 13.4589 8.97241 13.2258 8.97241 13.0703V12.6816C8.97241 12.4484 9.10694 12.293 9.19663 12.293H11.0801C11.2146 12.293 11.3043 12.5262 11.3043 12.6816V13.0703C11.3043 13.3035 11.2146 13.4589 11.0801 13.4589Z" fill="#D6DFE8"/>
<path d="M11.0801 22.7866H9.19663C9.0621 22.7866 8.97241 22.5534 8.97241 22.3979V22.0093C8.97241 21.7761 9.10694 21.6206 9.19663 21.6206H11.0801C11.2146 21.6206 11.3043 21.8538 11.3043 22.0093V22.3979C11.3043 22.6312 11.2146 22.7866 11.0801 22.7866Z" fill="#D6DFE8"/>
<path d="M18.5915 13.0703C18.5915 13.3035 18.4584 13.4589 18.3697 13.4589H12.692C12.5589 13.4589 12.4702 13.2258 12.4702 13.0703V12.6816C12.4702 12.4484 12.6033 12.293 12.692 12.293H18.3697C18.5028 12.293 18.5915 12.5262 18.5915 12.6816V13.0703Z" fill="#F1F5F9"/>
<path d="M18.5915 22.3979C18.5915 22.6312 18.4584 22.7866 18.3697 22.7866H12.692C12.5589 22.7866 12.4702 22.5534 12.4702 22.3979V22.0093C12.4702 21.7761 12.6033 21.6206 12.692 21.6206H18.3697C18.5028 21.6206 18.5915 21.8538 18.5915 22.0093V22.3979Z" fill="#F1F5F9"/>
<path d="M33.6883 9.28247C33.6883 8.85228 33.3396 8.50354 32.9094 8.50354H27.5321C27.1019 8.50354 26.7532 8.85228 26.7532 9.28247V9.38737C26.7532 9.81757 27.1019 10.1663 27.5321 10.1663H32.9094C33.3396 10.1663 33.6883 9.81757 33.6883 9.38737V9.28247Z" fill="#F9F9F9"/>
<path d="M30.7841 9.20004C30.7841 9.06354 30.6735 8.95288 30.537 8.95288H29.1285C28.992 8.95288 28.8813 9.06354 28.8813 9.20004C28.8813 9.33655 28.992 9.4472 29.1285 9.4472H30.537C30.6735 9.4472 30.7841 9.33655 30.7841 9.20004Z" fill="#D6DFE8"/>
<path d="M33.1882 9.20004C33.1882 9.06354 33.0775 8.95288 32.941 8.95288H32.7594C32.6229 8.95288 32.5122 9.06354 32.5122 9.20004C32.5122 9.33655 32.6229 9.4472 32.7594 9.4472H32.941C33.0775 9.4472 33.1882 9.33655 33.1882 9.20004Z" fill="#D6DFE8"/>
<path d="M34.2716 18.0272C34.2716 17.597 33.9228 17.2483 33.4926 17.2483H28.1154C27.6852 17.2483 27.3364 17.597 27.3364 18.0272V18.1321C27.3364 18.5623 27.6852 18.9111 28.1154 18.9111H33.4926C33.9228 18.9111 34.2716 18.5623 34.2716 18.1321V18.0272Z" fill="#F9F9F9"/>
<path d="M31.3674 17.9448C31.3674 17.8083 31.2567 17.6976 31.1202 17.6976H29.7118C29.5753 17.6976 29.4646 17.8083 29.4646 17.9448C29.4646 18.0813 29.5753 18.192 29.7118 18.192H31.1202C31.2567 18.192 31.3674 18.0813 31.3674 17.9448Z" fill="#D6DFE8"/>
<path d="M33.7714 17.9448C33.7714 17.8083 33.6608 17.6976 33.5243 17.6976H33.3426C33.2061 17.6976 33.0955 17.8083 33.0955 17.9448C33.0955 18.0813 33.2061 18.192 33.3426 18.192H33.5243C33.6608 18.192 33.7714 18.0813 33.7714 17.9448Z" fill="#D6DFE8"/>
<g filter="url(#filter3_d_10081_68929)">
<path d="M35.1028 24.7014C35.0316 25.0042 34.9247 25.3248 34.8 25.592C34.4616 26.251 33.9273 26.7675 33.2682 27.106C32.5913 27.4445 31.7898 27.587 30.9883 27.4088C29.1002 27.0169 27.889 25.1645 28.2809 23.2764C28.6728 21.3884 30.5074 20.1594 32.3954 20.5691C33.0723 20.7116 33.6601 21.05 34.1588 21.5131C34.996 22.3502 35.3522 23.5614 35.1028 24.7014Z" fill="#EB9700"/>
<path d="M35.1028 24.7014C35.0316 25.0042 34.9247 25.3248 34.8 25.592C34.4616 26.251 33.9273 26.7675 33.2682 27.106C32.5913 27.4445 31.7898 27.587 30.9883 27.4088C29.1002 27.0169 27.889 25.1645 28.2809 23.2764C28.6728 21.3884 30.5074 20.1594 32.3954 20.5691C33.0723 20.7116 33.6601 21.05 34.1588 21.5131C34.996 22.3502 35.3522 23.5614 35.1028 24.7014Z" stroke="#EF9200" stroke-width="0.356233" stroke-miterlimit="10"/>
</g>
<path d="M31.4312 22.4738C31.5184 22.2053 31.8983 22.2053 31.9856 22.4738L32.1665 23.0305C32.2055 23.1506 32.3174 23.2319 32.4437 23.2319H33.029C33.3114 23.2319 33.4288 23.5933 33.2004 23.7592L32.7268 24.1033C32.6247 24.1775 32.5819 24.3091 32.6209 24.4292L32.8018 24.9859C32.8891 25.2544 32.5817 25.4777 32.3533 25.3118L31.8797 24.9677C31.7775 24.8935 31.6392 24.8935 31.537 24.9677L31.0635 25.3118C30.835 25.4777 30.5277 25.2544 30.6149 24.9859L30.7958 24.4292C30.8348 24.3091 30.7921 24.1775 30.6899 24.1033L30.2164 23.7592C29.9879 23.5933 30.1053 23.2319 30.3877 23.2319H30.9731C31.0993 23.2319 31.2113 23.1506 31.2503 23.0305L31.4312 22.4738Z" fill="white"/>
<defs>
<filter id="filter0_d_10081_68929" x="0.519584" y="2.67376" width="40.2255" height="30.3148" filterUnits="userSpaceOnUse" color-interpolation-filters="sRGB">
<feFlood flood-opacity="0" result="BackgroundImageFix"/>
<feColorMatrix in="SourceAlpha" type="matrix" values="0 0 0 0 0 0 0 0 0 0 0 0 0 0 0 0 0 0 127 0" result="hardAlpha"/>
<feMorphology radius="1.16596" operator="erode" in="SourceAlpha" result="effect1_dropShadow_10081_68929"/>
<feOffset dy="2.33191"/>
<feGaussianBlur stdDeviation="3.49787"/>
<feColorMatrix type="matrix" values="0 0 0 0 0 0 0 0 0 0.144828 0 0 0 0 0.45 0 0 0 0.06 0"/>
<feBlend mode="normal" in2="BackgroundImageFix" result="effect1_dropShadow_10081_68929"/>
<feBlend mode="normal" in="SourceGraphic" in2="effect1_dropShadow_10081_68929" result="shape"/>
</filter>
<filter id="filter1_d_10081_68929" x="0.519584" y="2.67376" width="40.2255" height="20.4042" filterUnits="userSpaceOnUse" color-interpolation-filters="sRGB">
<feFlood flood-opacity="0" result="BackgroundImageFix"/>
<feColorMatrix in="SourceAlpha" type="matrix" values="0 0 0 0 0 0 0 0 0 0 0 0 0 0 0 0 0 0 127 0" result="hardAlpha"/>
<feMorphology radius="1.16596" operator="erode" in="SourceAlpha" result="effect1_dropShadow_10081_68929"/>
<feOffset dy="2.33191"/>
<feGaussianBlur stdDeviation="3.49787"/>
<feColorMatrix type="matrix" values="0 0 0 0 0 0 0 0 0 0.144828 0 0 0 0 0.45 0 0 0 0.06 0"/>
<feBlend mode="normal" in2="BackgroundImageFix" result="effect1_dropShadow_10081_68929"/>
<feBlend mode="normal" in="SourceGraphic" in2="effect1_dropShadow_10081_68929" result="shape"/>
</filter>
<filter id="filter2_d_10081_68929" x="0.519584" y="12.5844" width="40.2255" height="20.4042" filterUnits="userSpaceOnUse" color-interpolation-filters="sRGB">
<feFlood flood-opacity="0" result="BackgroundImageFix"/>
<feColorMatrix in="SourceAlpha" type="matrix" values="0 0 0 0 0 0 0 0 0 0 0 0 0 0 0 0 0 0 127 0" result="hardAlpha"/>
<feMorphology radius="1.16596" operator="erode" in="SourceAlpha" result="effect1_dropShadow_10081_68929"/>
<feOffset dy="2.33191"/>
<feGaussianBlur stdDeviation="3.49787"/>
<feColorMatrix type="matrix" values="0 0 0 0 0 0 0 0 0 0.144828 0 0 0 0 0.45 0 0 0 0.06 0"/>
<feBlend mode="normal" in2="BackgroundImageFix" result="effect1_dropShadow_10081_68929"/>
<feBlend mode="normal" in="SourceGraphic" in2="effect1_dropShadow_10081_68929" result="shape"/>
</filter>
<filter id="filter3_d_10081_68929" x="22.1993" y="16.8141" width="18.9896" height="19.0116" filterUnits="userSpaceOnUse" color-interpolation-filters="sRGB">
<feFlood flood-opacity="0" result="BackgroundImageFix"/>
<feColorMatrix in="SourceAlpha" type="matrix" values="0 0 0 0 0 0 0 0 0 0 0 0 0 0 0 0 0 0 127 0" result="hardAlpha"/>
<feMorphology radius="1.16596" operator="erode" in="SourceAlpha" result="effect1_dropShadow_10081_68929"/>
<feOffset dy="2.33191"/>
<feGaussianBlur stdDeviation="3.49787"/>
<feColorMatrix type="matrix" values="0 0 0 0 0 0 0 0 0 0.144828 0 0 0 0 0.45 0 0 0 0.06 0"/>
<feBlend mode="normal" in2="BackgroundImageFix" result="effect1_dropShadow_10081_68929"/>
<feBlend mode="normal" in="SourceGraphic" in2="effect1_dropShadow_10081_68929" result="shape"/>
</filter>
</defs>
</svg>
