<svg width="39" height="32" viewBox="0 0 39 32" fill="none" xmlns="http://www.w3.org/2000/svg">
<g clip-path="url(#clip0_10081_68945)">
<path d="M20.5514 31.2498C29.9014 31.2498 37.484 24.4739 37.484 16.1066C37.484 7.73934 29.9014 0.963379 20.5514 0.963379C11.2015 0.963379 3.6189 7.73934 3.6189 16.1066C3.6189 24.4739 11.2015 31.2498 20.5514 31.2498Z" fill="#F1F5F9" stroke="#D6DFE8" stroke-width="0.50589" stroke-miterlimit="10"/>
<path d="M33.5258 14.1294V23.395C33.5258 25.32 31.7869 26.8856 29.6205 26.8856H11.5476C9.4097 26.8856 7.67084 25.3456 7.64233 23.4206C7.64233 23.395 7.64233 23.395 7.64233 23.3693V14.1294C7.64233 14.1037 7.64233 14.1037 7.64233 14.078C7.64233 14.0267 7.64233 13.9754 7.67084 13.924C7.69935 13.847 7.72785 13.7957 7.75636 13.7187L12.6024 5.3771C12.7734 5.04343 13.144 4.86377 13.5431 4.86377H27.5965C27.9956 4.86377 28.3376 5.04343 28.5372 5.3771L33.3832 13.7187C33.4117 13.77 33.4402 13.847 33.4688 13.924C33.5258 13.9754 33.5258 14.0524 33.5258 14.1294Z" fill="#F1F3F9" stroke="#D6DCE8" stroke-width="0.50589" stroke-miterlimit="10"/>
<path d="M24.2885 14.2079H16.9625C16.6489 14.2079 16.3923 14.0026 16.3923 13.6946V4.68569C16.3923 4.40336 16.6204 4.17236 16.9625 4.17236H24.26C24.5735 4.17236 24.8301 4.3777 24.8301 4.68569V13.6946C24.8301 13.9769 24.602 14.2079 24.2885 14.2079Z" fill="white" stroke="#D6DCE8" stroke-width="0.50589" stroke-miterlimit="10"/>
<path d="M26.7106 16.3369H14.5386C14.1395 16.3369 13.8259 16.0289 13.8259 15.6952V6.94293C13.8259 6.5836 14.168 6.30127 14.5386 6.30127H26.7106C27.1097 6.30127 27.4233 6.60927 27.4233 6.94293V15.6952C27.3947 16.0545 27.1097 16.3369 26.7106 16.3369Z" fill="white" stroke="#D6DCE8" stroke-width="0.50589" stroke-miterlimit="10"/>
<path d="M28.1042 18.8268H13.1671C12.7395 18.8268 12.3689 18.4932 12.3689 18.1338V9.50989C12.3689 9.12489 12.7395 8.81689 13.1671 8.81689H28.1042C28.5318 8.81689 28.9024 9.15056 28.9024 9.50989V18.1082C28.8738 18.5188 28.5318 18.8268 28.1042 18.8268Z" fill="white" stroke="#D6DCE8" stroke-width="0.50589" stroke-miterlimit="10"/>
<path d="M29.6203 21.2406H11.6616C11.177 21.2406 10.8064 20.8813 10.8064 20.4963V12.0007C10.8064 11.5643 11.2055 11.2563 11.6616 11.2563H29.6203C30.1049 11.2563 30.4755 11.6157 30.4755 12.0007V20.4706C30.447 20.9069 30.1049 21.2406 29.6203 21.2406Z" fill="#EB9700" stroke="#D6DCE8" stroke-width="0.50589" stroke-miterlimit="10"/>
<path d="M24.2325 14.6184H17.4766C17.3056 14.6184 17.1345 14.4901 17.1345 14.3104C17.1345 14.1564 17.2771 14.0024 17.4766 14.0024H24.2325C24.4035 14.0024 24.5746 14.1308 24.5746 14.3104C24.5746 14.4901 24.432 14.6184 24.2325 14.6184Z" fill="#E38B00"/>
<path d="M22.2608 16.4145H13.7091C13.595 16.4145 13.5095 16.3375 13.5095 16.2348C13.5095 16.1322 13.595 16.0552 13.7091 16.0552H22.2323C22.3464 16.0552 22.4319 16.1322 22.4319 16.2348C22.4889 16.2862 22.4034 16.4145 22.2608 16.4145Z" fill="#E38B00"/>
<path d="M27.8806 16.4145H23.5762C23.4622 16.4145 23.3767 16.3375 23.3767 16.2348C23.3767 16.1322 23.4622 16.0552 23.5762 16.0552H27.8521C27.9662 16.0552 28.0517 16.1322 28.0517 16.2348C28.1087 16.2862 28.0232 16.4145 27.8806 16.4145Z" fill="#E38B00"/>
<g filter="url(#filter0_d_10081_68945)">
<path d="M32.0354 14.5963V23.3809C32.0354 24.6303 30.9254 25.6299 29.5123 25.6299H11.6497C10.2621 25.6299 9.12671 24.6303 9.12671 23.3809V14.5509C9.12671 14.5054 9.12671 14.46 9.15194 14.4146H14.0492C14.907 14.4146 15.6134 15.0279 15.6134 15.823C15.6134 16.2092 15.7901 16.5726 16.0676 16.8225C16.3703 17.0951 16.7235 17.2314 17.1777 17.2314H24.2948C25.1526 17.2314 25.859 16.6181 25.859 15.823C25.859 15.4368 26.0356 15.0733 26.3132 14.8234C26.6159 14.5509 26.9691 14.4146 27.398 14.4146H31.9849C32.0354 14.46 32.0354 14.5281 32.0354 14.5963Z" fill="white"/>
</g>
<path d="M33.5219 14.1316V24.3468C33.5219 25.7585 32.2676 26.8878 30.6713 26.8878H10.489C8.92119 26.8878 7.63843 25.7585 7.63843 24.3468V14.0802C7.63843 14.0289 7.63843 13.9776 7.66693 13.9263H14.1663C15.1355 13.9263 15.9337 14.6193 15.9337 15.5176C15.9337 15.9539 16.1332 16.3646 16.4468 16.6469C16.7888 16.9549 17.1879 17.1089 17.701 17.1089H23.4877C24.4569 17.1089 25.2551 16.4159 25.2551 15.5176C25.2551 15.0813 25.4546 14.6706 25.7682 14.3883C26.1103 14.0803 26.5093 13.9263 26.9939 13.9263H33.4648C33.5219 13.9776 33.5219 14.0546 33.5219 14.1316Z" fill="white" stroke="#D6DCE8" stroke-width="0.50589" stroke-miterlimit="10"/>
<path d="M30.6742 23.1912H24.802C24.6024 23.1912 24.4314 23.0629 24.4314 22.8576C24.4314 22.6779 24.5739 22.5239 24.802 22.5239H30.6172C30.8168 22.5239 30.9878 22.6523 30.9878 22.8576C31.0163 23.0116 30.8453 23.1912 30.6742 23.1912Z" fill="#133986"/>
<path d="M28.0516 24.8084H24.802C24.6024 24.8084 24.4314 24.6801 24.4314 24.4748C24.4314 24.2951 24.5739 24.1411 24.802 24.1411H28.0231C28.2227 24.1411 28.3937 24.2694 28.3937 24.4748C28.4222 24.6288 28.2512 24.8084 28.0516 24.8084Z" fill="#133986"/>
<path d="M37.0533 8.86881C37.6989 8.86881 38.222 8.39768 38.222 7.81649C38.222 7.23532 37.6989 6.76416 37.0533 6.76416C36.4079 6.76416 35.8845 7.23532 35.8845 7.81649C35.8845 8.39768 36.4079 8.86881 37.0533 8.86881Z" fill="#133986"/>
<path d="M35.8819 5.45539C36.3229 5.45539 36.6801 5.13363 36.6801 4.73673C36.6801 4.33982 36.3229 4.01807 35.8819 4.01807C35.4412 4.01807 35.0837 4.33982 35.0837 4.73673C35.0837 5.13363 35.4412 5.45539 35.8819 5.45539Z" fill="#D5DEE7"/>
<path d="M3.55768 7.81672C3.99849 7.81672 4.35584 7.49496 4.35584 7.09806C4.35584 6.70115 3.99849 6.37939 3.55768 6.37939C3.11686 6.37939 2.75952 6.70115 2.75952 7.09806C2.75952 7.49496 3.11686 7.81672 3.55768 7.81672Z" fill="#D5DEE7"/>
<path d="M1.76136 23.6268C2.58002 23.6268 3.24366 23.0293 3.24366 22.2922C3.24366 21.5551 2.58002 20.9575 1.76136 20.9575C0.942705 20.9575 0.279053 21.5551 0.279053 22.2922C0.279053 23.0293 0.942705 23.6268 1.76136 23.6268Z" fill="#133986"/>
</g>
<defs>
<filter id="filter0_d_10081_68945" x="5.83842" y="10.3674" width="29.4853" height="17.7919" filterUnits="userSpaceOnUse" color-interpolation-filters="sRGB">
<feFlood flood-opacity="0" result="BackgroundImageFix"/>
<feColorMatrix in="SourceAlpha" type="matrix" values="0 0 0 0 0 0 0 0 0 0 0 0 0 0 0 0 0 0 127 0" result="hardAlpha"/>
<feOffset dy="-0.758835"/>
<feGaussianBlur stdDeviation="1.64414"/>
<feColorMatrix type="matrix" values="0 0 0 0 0.397708 0 0 0 0 0.47749 0 0 0 0 0.575 0 0 0 0.27 0"/>
<feBlend mode="normal" in2="BackgroundImageFix" result="effect1_dropShadow_10081_68945"/>
<feBlend mode="normal" in="SourceGraphic" in2="effect1_dropShadow_10081_68945" result="shape"/>
</filter>
<clipPath id="clip0_10081_68945">
<rect width="38.483" height="31.0564" fill="white" transform="translate(0.017334 0.463379)"/>
</clipPath>
</defs>
</svg>
