<svg width="68" height="47" viewBox="0 0 68 47" fill="none" xmlns="http://www.w3.org/2000/svg">
<g filter="url(#filter0_f_10081_68925)">
<path d="M49.3482 12.4046C49.3482 12.0624 49.0708 11.785 48.7286 11.785H28.4043C28.0621 11.785 27.7847 12.0624 27.7847 12.4046V16.8849C27.7847 17.2271 28.0621 17.5045 28.4043 17.5045H48.7286C49.0708 17.5045 49.3482 17.2271 49.3482 16.8849V12.4046Z" fill="white"/>
<path d="M29.3088 14.1949H28.4307C28.368 14.1949 28.3262 14.0704 28.3262 13.9874V13.7798C28.3262 13.6553 28.3889 13.5723 28.4307 13.5723H29.3088C29.3715 13.5723 29.4133 13.6968 29.4133 13.7798V13.9874C29.4133 14.0704 29.3715 14.1949 29.3088 14.1949Z" fill="#D6DFE8"/>
<path d="M35.3498 14.1951H30.1651C30.1024 14.1951 30.0605 14.0705 30.0605 13.9875V13.7799C30.0605 13.6554 30.1233 13.5724 30.1651 13.5724H35.3498C35.4125 13.5724 35.4544 13.6969 35.4544 13.7799V13.9875C35.4544 14.0705 35.4125 14.1951 35.3498 14.1951Z" fill="#F1F5F9"/>
<path d="M29.3088 15.8972H28.4307C28.368 15.8972 28.3262 15.7727 28.3262 15.6897V15.4821C28.3262 15.3576 28.3889 15.2745 28.4307 15.2745H29.3088C29.3715 15.2745 29.4133 15.3991 29.4133 15.4821V15.6897C29.4133 15.8142 29.3715 15.8972 29.3088 15.8972Z" fill="#D6DFE8"/>
<path d="M32.9456 15.6897C32.9456 15.8142 32.8829 15.8972 32.8411 15.8972H30.1651C30.1024 15.8972 30.0605 15.7727 30.0605 15.6897V15.4821C30.0605 15.3576 30.1233 15.2745 30.1651 15.2745H32.8411C32.9038 15.2745 32.9456 15.3991 32.9456 15.4821V15.6897Z" fill="#F1F5F9"/>
<path d="M48.6139 14.5493C48.6139 14.2071 48.3365 13.9297 47.9943 13.9297H44.2468C43.9046 13.9297 43.6272 14.2071 43.6272 14.5493V14.6327C43.6272 14.9749 43.9046 15.2523 44.2468 15.2523H47.9943C48.3365 15.2523 48.6139 14.9749 48.6139 14.6327V14.5493Z" fill="#F9F9F9"/>
<path d="M46.5252 14.4837C46.5252 14.3751 46.4372 14.2871 46.3286 14.2871H45.3536C45.245 14.2871 45.157 14.3751 45.157 14.4837C45.157 14.5923 45.245 14.6803 45.3536 14.6803H46.3286C46.4372 14.6803 46.5252 14.5923 46.5252 14.4837Z" fill="#D6DFE8"/>
<path d="M48.2541 14.4837C48.2541 14.3751 48.1661 14.2871 48.0575 14.2871H47.9647C47.8561 14.2871 47.7681 14.3751 47.7681 14.4837C47.7681 14.5923 47.8561 14.6803 47.9647 14.6803H48.0575C48.1661 14.6803 48.2541 14.5923 48.2541 14.4837Z" fill="#D6DFE8"/>
</g>
<g filter="url(#filter1_d_10081_68925)">
<path d="M47.7242 10.5498C47.7242 10.2076 47.4468 9.93018 47.1046 9.93018H26.7803C26.4381 9.93018 26.1606 10.2076 26.1606 10.5498V15.03C26.1606 15.3722 26.4381 15.6496 26.7803 15.6496H47.1046C47.4468 15.6496 47.7242 15.3722 47.7242 15.03V10.5498Z" fill="white"/>
<path d="M27.6847 12.3401H26.8067C26.744 12.3401 26.7021 12.2156 26.7021 12.1325V11.925C26.7021 11.8004 26.7649 11.7174 26.8067 11.7174H27.6847C27.7475 11.7174 27.7893 11.8419 27.7893 11.925V12.1325C27.7893 12.2156 27.7475 12.3401 27.6847 12.3401Z" fill="#D6DFE8"/>
<path d="M33.7258 12.3402H28.5411C28.4783 12.3402 28.4365 12.2157 28.4365 12.1326V11.9251C28.4365 11.8006 28.4992 11.7175 28.5411 11.7175H33.7258C33.7885 11.7175 33.8303 11.8421 33.8303 11.9251V12.1326C33.8303 12.2157 33.7885 12.3402 33.7258 12.3402Z" fill="#F1F5F9"/>
<path d="M27.6847 14.0424H26.8067C26.744 14.0424 26.7021 13.9179 26.7021 13.8348V13.6272C26.7021 13.5027 26.7649 13.4197 26.8067 13.4197H27.6847C27.7475 13.4197 27.7893 13.5442 27.7893 13.6272V13.8348C27.7893 13.9594 27.7475 14.0424 27.6847 14.0424Z" fill="#D6DFE8"/>
<path d="M31.3216 13.8348C31.3216 13.9594 31.2589 14.0424 31.2171 14.0424H28.5411C28.4783 14.0424 28.4365 13.9179 28.4365 13.8348V13.6272C28.4365 13.5027 28.4992 13.4197 28.5411 13.4197H31.2171C31.2798 13.4197 31.3216 13.5442 31.3216 13.6272V13.8348Z" fill="#F1F5F9"/>
<path d="M46.9901 12.6943C46.9901 12.3521 46.7127 12.0747 46.3705 12.0747H42.623C42.2808 12.0747 42.0034 12.3521 42.0034 12.6943V12.7778C42.0034 13.12 42.2808 13.3974 42.623 13.3974H46.3705C46.7127 13.3974 46.9901 13.12 46.9901 12.7778V12.6943Z" fill="#F9F9F9"/>
<path d="M44.9014 12.6287C44.9014 12.5202 44.8134 12.4321 44.7048 12.4321H43.7298C43.6212 12.4321 43.5332 12.5202 43.5332 12.6287C43.5332 12.7373 43.6212 12.8253 43.7298 12.8253H44.7048C44.8134 12.8253 44.9014 12.7373 44.9014 12.6287Z" fill="#D6DFE8"/>
<path d="M46.6306 12.6287C46.6306 12.5202 46.5426 12.4321 46.434 12.4321H46.3411C46.2326 12.4321 46.1445 12.5202 46.1445 12.6287C46.1445 12.7373 46.2326 12.8253 46.3411 12.8253H46.434C46.5426 12.8253 46.6306 12.7373 46.6306 12.6287Z" fill="#D6DFE8"/>
</g>
<g filter="url(#filter2_d_10081_68925)">
<path d="M46.0732 8.69468C46.0732 8.35248 45.7958 8.07507 45.4536 8.07507H22.8379C22.4957 8.07507 22.2183 8.35248 22.2183 8.69468V13.1749C22.2183 13.5171 22.4957 13.7945 22.8379 13.7945H45.4536C45.7958 13.7945 46.0732 13.5171 46.0732 13.1749V8.69468Z" fill="white"/>
<path d="M23.9039 10.485H22.9325C22.8631 10.485 22.8169 10.3604 22.8169 10.2774V10.0699C22.8169 9.94533 22.8863 9.8623 22.9325 9.8623H23.9039C23.9733 9.8623 24.0195 9.98684 24.0195 10.0699V10.2774C24.0195 10.3604 23.9733 10.485 23.9039 10.485Z" fill="#D6DFE8"/>
<path d="M30.5874 10.4851H24.8517C24.7823 10.4851 24.7361 10.3606 24.7361 10.2775V10.07C24.7361 9.94545 24.8055 9.86243 24.8517 9.86243H30.5874C30.6568 9.86243 30.703 9.98696 30.703 10.07V10.2775C30.703 10.3606 30.6568 10.4851 30.5874 10.4851Z" fill="#F1F5F9"/>
<path d="M23.9039 12.1873H22.9325C22.8631 12.1873 22.8169 12.0628 22.8169 11.9797V11.7721C22.8169 11.6476 22.8863 11.5646 22.9325 11.5646H23.9039C23.9733 11.5646 24.0195 11.6891 24.0195 11.7721V11.9797C24.0195 12.1043 23.9733 12.1873 23.9039 12.1873Z" fill="#D6DFE8"/>
<path d="M27.9277 11.9797C27.9277 12.1043 27.8583 12.1873 27.8121 12.1873H24.8517C24.7823 12.1873 24.7361 12.0628 24.7361 11.9797V11.7721C24.7361 11.6476 24.8055 11.5646 24.8517 11.5646H27.8121C27.8815 11.5646 27.9277 11.6891 27.9277 11.7721V11.9797Z" fill="#F1F5F9"/>
<path d="M45.2617 10.8393C45.2617 10.4971 44.9843 10.2197 44.6421 10.2197H40.3647C40.0225 10.2197 39.7451 10.4971 39.7451 10.8393V10.9228C39.7451 11.265 40.0225 11.5424 40.3647 11.5424H44.6421C44.9843 11.5424 45.2617 11.265 45.2617 10.9228V10.8393Z" fill="#F9F9F9"/>
<path d="M42.5016 10.7738C42.5016 10.6652 42.4136 10.5771 42.305 10.5771H41.1846C41.0761 10.5771 40.988 10.6652 40.988 10.7738C40.988 10.8823 41.0761 10.9704 41.1846 10.9704H42.305C42.4136 10.9704 42.5016 10.8823 42.5016 10.7738Z" fill="#D6DFE8"/>
<path d="M44.8639 10.7738C44.8639 10.6652 44.7759 10.5771 44.6673 10.5771H44.5228C44.4142 10.5771 44.3262 10.6652 44.3262 10.7738C44.3262 10.8823 44.4142 10.9704 44.5228 10.9704H44.6673C44.7759 10.9704 44.8639 10.8823 44.8639 10.7738Z" fill="#D6DFE8"/>
</g>
<path d="M28.3909 38.2369C34.8831 38.2369 40.1464 32.9734 40.1464 26.458C40.1464 19.9426 34.8599 14.6792 28.3909 14.6792C21.8986 14.6792 16.6353 19.9426 16.6353 26.458C16.6353 32.9734 21.8986 38.2369 28.3909 38.2369Z" fill="#F1F5F9" stroke="#D6DFE8" stroke-width="0.463733" stroke-miterlimit="10"/>
<path d="M40.8767 34.0577C41.4019 34.0577 41.8273 33.6322 41.8273 33.1071C41.8273 32.5821 41.4019 32.1565 40.8767 32.1565C40.3517 32.1565 39.926 32.5821 39.926 33.1071C39.926 33.6322 40.3517 34.0577 40.8767 34.0577Z" fill="#133986"/>
<path d="M42.2681 30.348C42.6268 30.348 42.9173 30.0573 42.9173 29.6988C42.9173 29.3402 42.6268 29.0496 42.2681 29.0496C41.9097 29.0496 41.6189 29.3402 41.6189 29.6988C41.6189 30.0573 41.9097 30.348 42.2681 30.348Z" fill="#D5DEE7"/>
<path d="M17.2618 18.7137C17.6203 18.7137 17.911 18.4231 17.911 18.0645C17.911 17.706 17.6203 17.4153 17.2618 17.4153C16.9032 17.4153 16.6125 17.706 16.6125 18.0645C16.6125 18.4231 16.9032 18.7137 17.2618 18.7137Z" fill="#D5DEE7"/>
<path d="M13.2968 31.2344C13.9627 31.2344 14.5025 30.6946 14.5025 30.0287C14.5025 29.3628 13.9627 28.823 13.2968 28.823C12.6309 28.823 12.0911 29.3628 12.0911 30.0287C12.0911 30.6946 12.6309 31.2344 13.2968 31.2344Z" fill="#133986"/>
<path d="M29.8665 30.7285H27.254C26.6487 30.7285 26.1389 31.2869 26.1389 31.95V33.381C26.1389 34.8468 27.2221 36.0335 28.5602 36.0335C29.8983 36.0335 30.9816 34.8468 30.9816 33.381V31.95C30.9816 31.252 30.4718 30.7285 29.8665 30.7285Z" fill="#EB9700" stroke="#D6DFE8" stroke-width="0.463733" stroke-miterlimit="10"/>
<g filter="url(#filter3_d_10081_68925)">
<path fill-rule="evenodd" clip-rule="evenodd" d="M29.6338 17.0172C32.1901 17.6085 34.0942 19.8978 34.0942 22.6336V23.3662C34.0942 29.545 38.7456 33.5899 38.7456 33.5899H17.8777C17.8777 33.5899 22.561 29.545 22.561 23.3662V22.6336C22.561 19.8978 24.4651 17.6085 27.0214 17.0172V16.7733C27.0214 16.0407 27.5948 15.4674 28.3276 15.4674C29.0604 15.4674 29.6338 16.0407 29.6338 16.7733V17.0172Z" fill="white"/>
</g>
<path d="M29.634 17.0173H29.4021V17.2016L29.5817 17.2431L29.634 17.0173ZM38.7457 33.59V33.8219H39.3657L38.898 33.415L38.7457 33.59ZM17.8778 33.59L17.7263 33.4145L17.2546 33.8219H17.8778V33.59ZM27.0215 17.0173L27.0738 17.2431L27.2534 17.2016V17.0173H27.0215ZM34.3262 22.6337C34.3262 19.7875 32.3453 17.4064 29.6862 16.7913L29.5817 17.2431C32.0352 17.8107 33.8625 20.0082 33.8625 22.6337H34.3262ZM34.3262 23.3662V22.6337H33.8625V23.3662H34.3262ZM38.7457 33.59C38.898 33.415 38.898 33.415 38.898 33.415C38.898 33.415 38.898 33.4151 38.898 33.415C38.898 33.415 38.8978 33.4149 38.8976 33.4147C38.8973 33.4144 38.8966 33.4138 38.8957 33.413C38.8936 33.4113 38.8908 33.4087 38.8867 33.4051C38.8786 33.3979 38.8663 33.3868 38.85 33.3719C38.8173 33.3421 38.7689 33.2971 38.707 33.2372C38.5829 33.1175 38.4044 32.9388 38.1899 32.7048C37.7607 32.2365 37.1876 31.5477 36.6144 30.6685C35.4671 28.9088 34.3262 26.3967 34.3262 23.3662H33.8625C33.8625 26.5146 35.0474 29.1143 36.2258 30.9218C36.8154 31.8262 37.405 32.5349 37.8481 33.0181C38.0696 33.2598 38.2546 33.4453 38.3849 33.571C38.4501 33.6339 38.5015 33.6817 38.5373 33.7142C38.5549 33.7305 38.5688 33.7428 38.5783 33.7513C38.5829 33.7555 38.5866 33.7588 38.5892 33.7611C38.5906 33.7622 38.5915 33.7631 38.5922 33.7638C38.5927 33.7641 38.5929 33.7644 38.5931 33.7645C38.5934 33.7646 38.5934 33.7647 38.5934 33.7648C38.5936 33.7649 38.5936 33.765 38.7457 33.59ZM17.8778 33.8219H38.7457V33.3581H17.8778V33.8219ZM22.3293 23.3662C22.3293 26.3962 21.1808 28.9082 20.0257 30.6679C19.4485 31.5471 18.8714 32.2359 18.4392 32.7042C18.2232 32.9382 18.0436 33.117 17.9187 33.2367C17.8562 33.2965 17.8074 33.3416 17.7746 33.3714C17.7582 33.3863 17.7458 33.3974 17.7376 33.4046C17.7335 33.4082 17.7305 33.4108 17.7286 33.4125C17.7277 33.4133 17.727 33.4139 17.7266 33.4142C17.7264 33.4144 17.7263 33.4144 17.7263 33.4145C17.7263 33.4145 17.7263 33.4145 17.7263 33.4145C17.7263 33.4145 17.7263 33.4145 17.8778 33.59C18.0294 33.7655 18.0295 33.7654 18.0296 33.7653C18.0296 33.7653 18.0297 33.7652 18.0299 33.7651C18.0301 33.7649 18.0304 33.7646 18.0308 33.7643C18.0315 33.7636 18.0325 33.7627 18.0338 33.7616C18.0364 33.7593 18.0402 33.7561 18.0449 33.7518C18.0545 33.7434 18.0684 33.731 18.0863 33.7147C18.1221 33.6823 18.1739 33.6344 18.2395 33.5716C18.3706 33.4459 18.557 33.2604 18.78 33.0187C19.2259 32.5355 19.8197 31.8268 20.4133 30.9224C21.5999 29.115 22.793 26.5151 22.793 23.3662H22.3293ZM22.3293 22.6337V23.3662H22.793V22.6337H22.3293ZM26.9693 16.7913C24.3102 17.4064 22.3293 19.7875 22.3293 22.6337H22.793C22.793 20.0082 24.6203 17.8107 27.0738 17.2431L26.9693 16.7913ZM27.2534 17.0173V16.7733H26.7897V17.0173H27.2534ZM27.2534 16.7733C27.2534 16.1689 27.723 15.6993 28.3277 15.6993V15.2356C27.467 15.2356 26.7897 15.9126 26.7897 16.7733H27.2534ZM28.3277 15.6993C28.9325 15.6993 29.4021 16.1689 29.4021 16.7733H29.8658C29.8658 15.9126 29.1885 15.2356 28.3277 15.2356V15.6993ZM29.4021 16.7733V17.0173H29.8658V16.7733H29.4021Z" fill="#D6DFE8"/>
<defs>
<filter id="filter0_f_10081_68925" x="27.5528" y="11.5532" width="22.0272" height="6.18321" filterUnits="userSpaceOnUse" color-interpolation-filters="sRGB">
<feFlood flood-opacity="0" result="BackgroundImageFix"/>
<feBlend mode="normal" in="SourceGraphic" in2="BackgroundImageFix" result="shape"/>
<feGaussianBlur stdDeviation="0.115933" result="effect1_foregroundBlur_10081_68925"/>
</filter>
<filter id="filter1_d_10081_68925" x="6.16064" y="-2.06982" width="61.5635" height="45.7195" filterUnits="userSpaceOnUse" color-interpolation-filters="sRGB">
<feFlood flood-opacity="0" result="BackgroundImageFix"/>
<feColorMatrix in="SourceAlpha" type="matrix" values="0 0 0 0 0 0 0 0 0 0 0 0 0 0 0 0 0 0 127 0" result="hardAlpha"/>
<feMorphology radius="4" operator="erode" in="SourceAlpha" result="effect1_dropShadow_10081_68925"/>
<feOffset dy="8"/>
<feGaussianBlur stdDeviation="12"/>
<feColorMatrix type="matrix" values="0 0 0 0 0 0 0 0 0 0.144828 0 0 0 0 0.45 0 0 0 0.06 0"/>
<feBlend mode="normal" in2="BackgroundImageFix" result="effect1_dropShadow_10081_68925"/>
<feBlend mode="normal" in="SourceGraphic" in2="effect1_dropShadow_10081_68925" result="shape"/>
</filter>
<filter id="filter2_d_10081_68925" x="2.21826" y="-3.92493" width="63.855" height="45.7195" filterUnits="userSpaceOnUse" color-interpolation-filters="sRGB">
<feFlood flood-opacity="0" result="BackgroundImageFix"/>
<feColorMatrix in="SourceAlpha" type="matrix" values="0 0 0 0 0 0 0 0 0 0 0 0 0 0 0 0 0 0 127 0" result="hardAlpha"/>
<feMorphology radius="4" operator="erode" in="SourceAlpha" result="effect1_dropShadow_10081_68925"/>
<feOffset dy="8"/>
<feGaussianBlur stdDeviation="12"/>
<feColorMatrix type="matrix" values="0 0 0 0 0 0 0 0 0 0.144828 0 0 0 0 0.45 0 0 0 0.06 0"/>
<feBlend mode="normal" in2="BackgroundImageFix" result="effect1_dropShadow_10081_68925"/>
<feBlend mode="normal" in="SourceGraphic" in2="effect1_dropShadow_10081_68925" result="shape"/>
</filter>
<filter id="filter3_d_10081_68925" x="-2.12231" y="3.46741" width="60.8679" height="58.1226" filterUnits="userSpaceOnUse" color-interpolation-filters="sRGB">
<feFlood flood-opacity="0" result="BackgroundImageFix"/>
<feColorMatrix in="SourceAlpha" type="matrix" values="0 0 0 0 0 0 0 0 0 0 0 0 0 0 0 0 0 0 127 0" result="hardAlpha"/>
<feMorphology radius="4" operator="erode" in="SourceAlpha" result="effect1_dropShadow_10081_68925"/>
<feOffset dy="8"/>
<feGaussianBlur stdDeviation="12"/>
<feColorMatrix type="matrix" values="0 0 0 0 0 0 0 0 0 0.144828 0 0 0 0 0.45 0 0 0 0.06 0"/>
<feBlend mode="normal" in2="BackgroundImageFix" result="effect1_dropShadow_10081_68925"/>
<feBlend mode="normal" in="SourceGraphic" in2="effect1_dropShadow_10081_68925" result="shape"/>
</filter>
</defs>
</svg>
