<svg width="63" height="47" viewBox="0 0 63 47" fill="none" xmlns="http://www.w3.org/2000/svg">
<path d="M39.6746 27.5879C39.6746 30.7836 38.3696 33.6642 36.2766 35.7346C34.2286 37.7825 31.393 39.0203 28.2648 39.0203C25.1592 39.0203 22.3236 37.76 20.2532 35.7346C18.1603 33.6642 16.855 30.7836 16.855 27.5879C16.855 21.2641 21.9635 16.1555 28.2648 16.1555C34.566 16.1555 39.6746 21.2866 39.6746 27.5879Z" fill="#F1F5F9" stroke="#D6DFE8" stroke-width="0.450093" stroke-miterlimit="10"/>
<path d="M40.8573 23.2514C41.3668 23.2514 41.78 22.8383 41.78 22.3287C41.78 21.8191 41.3668 21.406 40.8573 21.406C40.3478 21.406 39.9346 21.8191 39.9346 22.3287C39.9346 22.8383 40.3478 23.2514 40.8573 23.2514Z" fill="#EAF1F9"/>
<path d="M40.0354 16.4932C40.3833 16.4932 40.6655 16.2111 40.6655 15.863C40.6655 15.515 40.3833 15.2329 40.0354 15.2329C39.6873 15.2329 39.4053 15.515 39.4053 15.863C39.4053 16.2111 39.6873 16.4932 40.0354 16.4932Z" fill="#EAF1F9"/>
<path d="M17.2151 20.0713C17.5631 20.0713 17.8452 19.7892 17.8452 19.4412C17.8452 19.0932 17.5631 18.811 17.2151 18.811C16.8671 18.811 16.585 19.0932 16.585 19.4412C16.585 19.7892 16.8671 20.0713 17.2151 20.0713Z" fill="#133986"/>
<path d="M13.367 32.2239C14.0133 32.2239 14.5373 31.7 14.5373 31.0537C14.5373 30.4073 14.0133 29.8834 13.367 29.8834C12.7207 29.8834 12.1968 30.4073 12.1968 31.0537C12.1968 31.7 12.7207 32.2239 13.367 32.2239Z" fill="#133986"/>
<path d="M36.9172 20.8575L35.9786 27.6748L34.8056 36.0985C34.5317 36.2551 34.219 36.3728 33.9061 36.3728H20.3757C19.7891 36.3728 19.2808 36.1768 18.8506 35.8633C18.7333 35.785 18.616 35.6675 18.4987 35.5501C18.0294 35.0799 17.7166 34.3746 17.7166 33.6302V19.0552C17.7166 18.3891 18.264 17.8798 18.8897 17.8798H22.9957C23.2695 17.8798 23.5432 17.9973 23.7778 18.2324L25.1074 19.682C25.303 19.878 25.5767 19.9955 25.8504 19.9955H36.1352C36.6044 19.9955 36.9564 20.3873 36.9172 20.8575Z" fill="#D6DFE8" stroke="#AAB7C5" stroke-width="0.450093" stroke-miterlimit="10"/>
<path d="M19.7102 34.8839L20.8051 22.2288C20.8443 21.7586 21.2353 21.406 21.7046 21.406H37.2685C37.6986 21.406 38.0114 21.7586 37.9722 22.1896L36.8774 32.964L19.7102 34.8839Z" fill="white" stroke="#D6DFE8" stroke-width="0.450093" stroke-miterlimit="10" stroke-linejoin="round"/>
<path d="M25.9276 33.5127L20.2183 34.8447L23.7377 25.1673C23.8942 24.7363 24.2852 24.462 24.7545 24.462H38.5586C39.067 24.462 39.419 25.0105 39.1843 25.4807L35.4303 33.16L25.9276 33.5127Z" fill="white" stroke="#D6DFE8" stroke-width="0.450093" stroke-miterlimit="10" stroke-linejoin="round"/>
<path d="M40.5139 28.615L35.2739 35.6675C35.1564 35.8242 34.9609 35.981 34.8045 36.0985C34.5308 36.2551 34.218 36.3728 33.9051 36.3728H20.3747C19.7881 36.3728 19.2798 36.1768 18.8496 35.8633L24.3243 29.4769H32.9275C33.3185 29.4769 33.7096 29.3595 34.0224 29.0851L35.5084 27.949C35.6648 27.8315 35.8212 27.7531 35.9776 27.6747C36.1732 27.5964 36.4079 27.5572 36.6035 27.5572H39.9663C40.5139 27.518 40.8267 28.1841 40.5139 28.615Z" fill="#D6DFE8" stroke="#AAB7C5" stroke-width="0.450093" stroke-miterlimit="10"/>
<g filter="url(#filter0_d_10081_68933)">
<path d="M37.6001 19.293L31.4616 15.3168C31.1086 15.0859 31.0057 14.6166 31.2354 14.2597L35.0474 8.39054C35.2788 8.03769 35.7485 7.93444 36.1056 8.16367L42.2442 12.1398C42.5971 12.3707 42.7001 12.8401 42.4704 13.1969L38.6601 19.0701C38.4288 19.423 37.9532 19.5239 37.6001 19.293Z" fill="#F1F5F9"/>
<path d="M37.6001 19.293L31.4616 15.3168C31.1086 15.0859 31.0057 14.6166 31.2354 14.2597L35.0474 8.39054C35.2788 8.03769 35.7485 7.93444 36.1056 8.16367L42.2442 12.1398C42.5971 12.3707 42.7001 12.8401 42.4704 13.1969L38.6601 19.0701C38.4288 19.423 37.9532 19.5239 37.6001 19.293Z" stroke="#D6DFE8" stroke-width="0.450093" stroke-miterlimit="10"/>
</g>
<path d="M37.8317 18.1941L32.4345 14.6979C32.282 14.6008 32.2409 14.3971 32.3382 14.2446L35.4905 9.39178C35.5877 9.23931 35.7916 9.19804 35.9442 9.29515L41.3413 12.7913C41.4939 12.8884 41.5351 13.0921 41.4376 13.2446L38.2854 18.0974C38.1879 18.2499 37.984 18.2912 37.8317 18.1941Z" fill="#133986"/>
<g filter="url(#filter1_d_10081_68933)">
<path d="M26.5098 10.4567C26.8645 10.9894 27.1027 11.707 27.273 12.3171C27.5405 13.2202 27.6671 13.9912 26.8955 14.5888C26.4345 14.9533 25.818 15.1417 25.2695 15.3401C24.6336 15.5675 23.3133 15.9733 22.653 16.03C22.153 16.0822 21.6528 15.8417 21.3661 15.4166C21.0114 14.884 20.7732 14.1663 20.6029 13.5562C20.3646 12.741 20.2088 11.9797 20.8785 11.3671C21.3395 10.9539 22.0191 10.7608 22.5967 10.5527C23.2423 10.3059 23.9024 10.1029 24.5675 9.9634C24.9413 9.87181 25.2859 9.78989 25.6695 9.87392C26.0191 9.95296 26.3154 10.1635 26.5098 10.4567Z" stroke="#EB9700" stroke-width="0.450093" stroke-miterlimit="10"/>
</g>
<defs>
<filter id="filter0_d_10081_68933" x="10.8877" y="-4.18359" width="51.9304" height="51.8258" filterUnits="userSpaceOnUse" color-interpolation-filters="sRGB">
<feFlood flood-opacity="0" result="BackgroundImageFix"/>
<feColorMatrix in="SourceAlpha" type="matrix" values="0 0 0 0 0 0 0 0 0 0 0 0 0 0 0 0 0 0 127 0" result="hardAlpha"/>
<feMorphology radius="4" operator="erode" in="SourceAlpha" result="effect1_dropShadow_10081_68933"/>
<feOffset dy="8"/>
<feGaussianBlur stdDeviation="12"/>
<feColorMatrix type="matrix" values="0 0 0 0 0 0 0 0 0 0.144828 0 0 0 0 0.45 0 0 0 0.06 0"/>
<feBlend mode="normal" in2="BackgroundImageFix" result="effect1_dropShadow_10081_68933"/>
<feBlend mode="normal" in="SourceGraphic" in2="effect1_dropShadow_10081_68933" result="shape"/>
</filter>
<filter id="filter1_d_10081_68933" x="0.173584" y="-2.38611" width="47.5312" height="46.6482" filterUnits="userSpaceOnUse" color-interpolation-filters="sRGB">
<feFlood flood-opacity="0" result="BackgroundImageFix"/>
<feColorMatrix in="SourceAlpha" type="matrix" values="0 0 0 0 0 0 0 0 0 0 0 0 0 0 0 0 0 0 127 0" result="hardAlpha"/>
<feMorphology radius="4" operator="erode" in="SourceAlpha" result="effect1_dropShadow_10081_68933"/>
<feOffset dy="8"/>
<feGaussianBlur stdDeviation="12"/>
<feColorMatrix type="matrix" values="0 0 0 0 0 0 0 0 0 0.144828 0 0 0 0 0.45 0 0 0 0.06 0"/>
<feBlend mode="normal" in2="BackgroundImageFix" result="effect1_dropShadow_10081_68933"/>
<feBlend mode="normal" in="SourceGraphic" in2="effect1_dropShadow_10081_68933" result="shape"/>
</filter>
</defs>
</svg>
