<svg width="65" height="48" viewBox="0 0 65 48" fill="none" xmlns="http://www.w3.org/2000/svg">
<path d="M32.4336 39.369C40.8529 39.369 47.6787 32.5435 47.6787 24.0941C47.6787 15.6447 40.8229 8.81897 32.4336 8.81897C24.0142 8.81897 17.1885 15.6447 17.1885 24.0941C17.1885 32.5435 24.0142 39.369 32.4336 39.369Z" fill="#F1F5F9" stroke="#D6DFE8" stroke-width="0.601383" stroke-miterlimit="10"/>
<path d="M46.6867 14.0811C47.3675 14.0811 47.9195 13.5292 47.9195 12.8483C47.9195 12.1674 47.3675 11.6155 46.6867 11.6155C46.0056 11.6155 45.4539 12.1674 45.4539 12.8483C45.4539 13.5292 46.0056 14.0811 46.6867 14.0811Z" fill="#133986"/>
<path d="M48.4918 9.27017C48.9567 9.27017 49.3338 8.89322 49.3338 8.42824C49.3338 7.96325 48.9567 7.5863 48.4918 7.5863C48.0267 7.5863 47.6499 7.96325 47.6499 8.42824C47.6499 8.89322 48.0267 9.27017 48.4918 9.27017Z" fill="#D6DFE8"/>
<path d="M18.0014 14.0512C18.4664 14.0512 18.8433 13.6742 18.8433 13.2092C18.8433 12.7443 18.4664 12.3673 18.0014 12.3673C17.5364 12.3673 17.1594 12.7443 17.1594 13.2092C17.1594 13.6742 17.5364 14.0512 18.0014 14.0512Z" fill="#D6DFE8"/>
<path d="M12.8588 30.2883C13.7223 30.2883 14.4224 29.5883 14.4224 28.7247C14.4224 27.8612 13.7223 27.1611 12.8588 27.1611C11.9952 27.1611 11.2952 27.8612 11.2952 28.7247C11.2952 29.5883 11.9952 30.2883 12.8588 30.2883Z" fill="#133986"/>
<path d="M44.4024 30.0478L35.5019 28.4842L34.5397 28.3038L31.5628 27.7926C31.4425 27.7625 31.2922 27.8828 31.2922 28.0332C31.2621 28.1835 31.3523 28.3338 31.4726 28.3639L34.4495 28.8751L35.4117 29.0555L44.3122 30.6191C44.4325 30.6492 44.5829 30.5289 44.5829 30.3785C44.6129 30.2282 44.5528 30.0779 44.4024 30.0478Z" fill="#D6DFE8"/>
<path d="M44.7627 27.973L41.4551 27.4016L40.3425 27.1912L31.9532 25.7178C31.8329 25.6877 31.6826 25.808 31.6826 25.9583C31.6525 26.1087 31.7427 26.259 31.863 26.2891L40.2523 27.7625L41.3649 27.973L44.6725 28.5443C44.7928 28.5743 44.9432 28.4541 44.9432 28.3037C44.9732 28.1534 44.883 28.003 44.7627 27.973Z" fill="#D6DFE8"/>
<path d="M45.1838 25.8682L44.3118 25.7179L43.4398 25.5675L32.254 23.613C32.1337 23.583 31.9834 23.7032 31.9834 23.8536C31.9533 24.0039 32.0435 24.1543 32.1638 24.1843L43.3496 26.1388L44.3118 26.3193L45.0635 26.4395C45.1838 26.4696 45.3342 26.3493 45.3342 26.199C45.3943 26.0486 45.3342 25.8983 45.1838 25.8682Z" fill="#D6DFE8"/>
<path d="M36.1021 33.4155L35.5007 33.3253C35.3804 33.2953 35.2902 33.1449 35.3203 32.9946C35.3504 32.8442 35.4706 32.724 35.5909 32.754L36.1923 32.8442C36.3126 32.8743 36.4028 33.0247 36.3727 33.175C36.3426 33.3554 36.2224 33.4155 36.1021 33.4155Z" fill="#D6DFE8"/>
<path d="M34.2683 33.0849L30.7502 32.4835C30.6299 32.4535 30.5397 32.3031 30.5698 32.1528C30.5999 32.0024 30.7201 31.8822 30.8404 31.9122L34.3585 32.5136C34.4788 32.5437 34.569 32.694 34.5389 32.8444C34.5089 33.0248 34.3886 33.115 34.2683 33.0849Z" fill="#D6DFE8"/>
<g filter="url(#filter0_d_10081_68941)">
<path d="M44.0942 11.8568C44.0942 11.5246 43.825 11.2554 43.4928 11.2554H21.5423C21.2102 11.2554 20.9409 11.5246 20.9409 11.8568V16.2052C20.9409 16.5373 21.2102 16.8066 21.5423 16.8066H43.4928C43.825 16.8066 44.0942 16.5373 44.0942 16.2052V11.8568Z" fill="white"/>
</g>
<path d="M22.577 13.5944H21.6342C21.5669 13.5944 21.522 13.4735 21.522 13.3929V13.1914C21.522 13.0706 21.5893 12.99 21.6342 12.99H22.577C22.6444 12.99 22.6893 13.1109 22.6893 13.1914V13.3929C22.6893 13.4735 22.6444 13.5944 22.577 13.5944Z" fill="#D6DFE8"/>
<path d="M29.064 13.5945H23.497C23.4297 13.5945 23.3848 13.4736 23.3848 13.393V13.1916C23.3848 13.0707 23.4521 12.9901 23.497 12.9901H29.064C29.1313 12.9901 29.1762 13.111 29.1762 13.1916V13.393C29.1762 13.4736 29.1313 13.5945 29.064 13.5945Z" fill="#F1F5F9"/>
<path d="M22.577 15.2467H21.6342C21.5669 15.2467 21.522 15.1259 21.522 15.0452V14.8438C21.522 14.7229 21.5893 14.6423 21.6342 14.6423H22.577C22.6444 14.6423 22.6893 14.7632 22.6893 14.8438V15.0452C22.6893 15.1662 22.6444 15.2467 22.577 15.2467Z" fill="#D6DFE8"/>
<path d="M26.4825 15.0451C26.4825 15.166 26.4152 15.2466 26.3703 15.2466H23.497C23.4297 15.2466 23.3848 15.1257 23.3848 15.0451V14.8437C23.3848 14.7228 23.4521 14.6422 23.497 14.6422H26.3703C26.4376 14.6422 26.4825 14.7631 26.4825 14.8437V15.0451Z" fill="#F1F5F9"/>
<path d="M43.3053 13.9383C43.3053 13.6062 43.036 13.3369 42.7039 13.3369H38.5523C38.2202 13.3369 37.9509 13.6062 37.9509 13.9383V14.0193C37.9509 14.3514 38.2202 14.6207 38.5523 14.6207H42.7039C43.036 14.6207 43.3053 14.3514 43.3053 14.0193V13.9383Z" fill="#F9F9F9"/>
<path d="M41.0631 13.8747C41.0631 13.7693 40.9776 13.6838 40.8722 13.6838H39.7848C39.6794 13.6838 39.594 13.7693 39.594 13.8747C39.594 13.98 39.6794 14.0655 39.7848 14.0655H40.8722C40.9776 14.0655 41.0631 13.98 41.0631 13.8747Z" fill="#D6DFE8"/>
<path d="M42.9194 13.8747C42.9194 13.7693 42.8339 13.6838 42.7285 13.6838H42.5883C42.4829 13.6838 42.3975 13.7693 42.3975 13.8747C42.3975 13.98 42.4829 14.0655 42.5883 14.0655H42.7285C42.8339 14.0655 42.9194 13.98 42.9194 13.8747Z" fill="#D6DFE8"/>
<g filter="url(#filter1_d_10081_68941)">
<path d="M44.0942 18.6108C44.0942 18.2786 43.825 18.0094 43.4928 18.0094H21.5423C21.2102 18.0094 20.9409 18.2786 20.9409 18.6108V22.9592C20.9409 23.2914 21.2102 23.5606 21.5423 23.5606H43.4928C43.825 23.5606 44.0942 23.2914 44.0942 22.9592V18.6108Z" fill="white"/>
</g>
<path d="M22.577 20.3484H21.6342C21.5669 20.3484 21.522 20.2275 21.522 20.1469V19.9455C21.522 19.8246 21.5893 19.744 21.6342 19.744H22.577C22.6444 19.744 22.6893 19.8649 22.6893 19.9455V20.1469C22.6893 20.2275 22.6444 20.3484 22.577 20.3484Z" fill="#D6DFE8"/>
<path d="M29.064 20.3485H23.497C23.4297 20.3485 23.3848 20.2276 23.3848 20.1471V19.9456C23.3848 19.8247 23.4521 19.7441 23.497 19.7441H29.064C29.1313 19.7441 29.1762 19.865 29.1762 19.9456V20.1471C29.1762 20.2276 29.1313 20.3485 29.064 20.3485Z" fill="#F1F5F9"/>
<path d="M22.577 22.0007H21.6342C21.5669 22.0007 21.522 21.8799 21.522 21.7993V21.5978C21.522 21.4769 21.5893 21.3964 21.6342 21.3964H22.577C22.6444 21.3964 22.6893 21.5172 22.6893 21.5978V21.7993C22.6893 21.9202 22.6444 22.0007 22.577 22.0007Z" fill="#D6DFE8"/>
<path d="M26.4825 21.7992C26.4825 21.9201 26.4152 22.0006 26.3703 22.0006H23.497C23.4297 22.0006 23.3848 21.8798 23.3848 21.7992V21.5977C23.3848 21.4768 23.4521 21.3962 23.497 21.3962H26.3703C26.4376 21.3962 26.4825 21.5171 26.4825 21.5977V21.7992Z" fill="#F1F5F9"/>
<path d="M43.3053 20.6923C43.3053 20.3602 43.036 20.0909 42.7039 20.0909H38.5523C38.2202 20.0909 37.9509 20.3602 37.9509 20.6923V20.7733C37.9509 21.1054 38.2202 21.3747 38.5523 21.3747H42.7039C43.036 21.3747 43.3053 21.1054 43.3053 20.7733V20.6923Z" fill="#F9F9F9"/>
<path d="M41.0631 20.6287C41.0631 20.5233 40.9776 20.4379 40.8722 20.4379H39.7848C39.6794 20.4379 39.594 20.5233 39.594 20.6287C39.594 20.7341 39.6794 20.8195 39.7848 20.8195H40.8722C40.9776 20.8195 41.0631 20.7341 41.0631 20.6287Z" fill="#D6DFE8"/>
<path d="M42.9194 20.6287C42.9194 20.5233 42.8339 20.4379 42.7285 20.4379H42.5883C42.4829 20.4379 42.3975 20.5233 42.3975 20.6287C42.3975 20.7341 42.4829 20.8195 42.5883 20.8195H42.7285C42.8339 20.8195 42.9194 20.7341 42.9194 20.6287Z" fill="#D6DFE8"/>
<g filter="url(#filter2_d_10081_68941)">
<path d="M44.0942 25.3647C44.0942 25.0326 43.825 24.7633 43.4928 24.7633H21.5423C21.2102 24.7633 20.9409 25.0326 20.9409 25.3647V29.7131C20.9409 30.0453 21.2102 30.3145 21.5423 30.3145H43.4928C43.825 30.3145 44.0942 30.0453 44.0942 29.7131V25.3647Z" fill="white"/>
</g>
<path d="M22.577 27.1023H21.6342C21.5669 27.1023 21.522 26.9814 21.522 26.9008V26.6994C21.522 26.5785 21.5893 26.4979 21.6342 26.4979H22.577C22.6444 26.4979 22.6893 26.6188 22.6893 26.6994V26.9008C22.6893 26.9814 22.6444 27.1023 22.577 27.1023Z" fill="#D6DFE8"/>
<path d="M29.064 27.1024H23.497C23.4297 27.1024 23.3848 26.9815 23.3848 26.901V26.6995C23.3848 26.5786 23.4521 26.498 23.497 26.498H29.064C29.1313 26.498 29.1762 26.6189 29.1762 26.6995V26.901C29.1762 26.9815 29.1313 27.1024 29.064 27.1024Z" fill="#F1F5F9"/>
<path d="M22.577 28.7546H21.6342C21.5669 28.7546 21.522 28.6338 21.522 28.5532V28.3517C21.522 28.2309 21.5893 28.1503 21.6342 28.1503H22.577C22.6444 28.1503 22.6893 28.2711 22.6893 28.3517V28.5532C22.6893 28.6741 22.6444 28.7546 22.577 28.7546Z" fill="#D6DFE8"/>
<path d="M26.4825 28.5531C26.4825 28.674 26.4152 28.7545 26.3703 28.7545H23.497C23.4297 28.7545 23.3848 28.6337 23.3848 28.5531V28.3516C23.3848 28.2307 23.4521 28.1501 23.497 28.1501H26.3703C26.4376 28.1501 26.4825 28.271 26.4825 28.3516V28.5531Z" fill="#F1F5F9"/>
<path d="M43.3053 27.4465C43.3053 27.1143 43.036 26.8451 42.7039 26.8451H38.5523C38.2202 26.8451 37.9509 27.1143 37.9509 27.4465V27.5275C37.9509 27.8596 38.2202 28.1288 38.5523 28.1288H42.7039C43.036 28.1288 43.3053 27.8596 43.3053 27.5275V27.4465Z" fill="#F9F9F9"/>
<path d="M41.0631 27.3828C41.0631 27.2775 40.9776 27.192 40.8722 27.192H39.7848C39.6794 27.192 39.594 27.2775 39.594 27.3828C39.594 27.4882 39.6794 27.5737 39.7848 27.5737H40.8722C40.9776 27.5737 41.0631 27.4882 41.0631 27.3828Z" fill="#D6DFE8"/>
<path d="M42.9194 27.3828C42.9194 27.2775 42.8339 27.192 42.7285 27.192H42.5883C42.4829 27.192 42.3975 27.2775 42.3975 27.3828C42.3975 27.4882 42.4829 27.5737 42.5883 27.5737H42.7285C42.8339 27.5737 42.9194 27.4882 42.9194 27.3828Z" fill="#D6DFE8"/>
<g filter="url(#filter3_d_10081_68941)">
<path d="M44.0942 32.1185C44.0942 31.7863 43.825 31.5171 43.4928 31.5171H21.5423C21.2102 31.5171 20.9409 31.7863 20.9409 32.1185V36.4669C20.9409 36.7991 21.2102 37.0683 21.5423 37.0683H43.4928C43.825 37.0683 44.0942 36.7991 44.0942 36.4669V32.1185Z" fill="white"/>
</g>
<path d="M22.577 33.8562H21.6342C21.5669 33.8562 21.522 33.7353 21.522 33.6547V33.4533C21.522 33.3324 21.5893 33.2518 21.6342 33.2518H22.577C22.6444 33.2518 22.6893 33.3727 22.6893 33.4533V33.6547C22.6893 33.7353 22.6444 33.8562 22.577 33.8562Z" fill="#D6DFE8"/>
<path d="M29.064 33.8562H23.497C23.4297 33.8562 23.3848 33.7353 23.3848 33.6547V33.4533C23.3848 33.3324 23.4521 33.2518 23.497 33.2518H29.064C29.1313 33.2518 29.1762 33.3727 29.1762 33.4533V33.6547C29.1762 33.7353 29.1313 33.8562 29.064 33.8562Z" fill="#F1F5F9"/>
<path d="M22.577 35.5084H21.6342C21.5669 35.5084 21.522 35.3876 21.522 35.307V35.1055C21.522 34.9846 21.5893 34.9041 21.6342 34.9041H22.577C22.6444 34.9041 22.6893 35.0249 22.6893 35.1055V35.307C22.6893 35.4279 22.6444 35.5084 22.577 35.5084Z" fill="#D6DFE8"/>
<path d="M26.4825 35.3068C26.4825 35.4278 26.4152 35.5083 26.3703 35.5083H23.497C23.4297 35.5083 23.3848 35.3875 23.3848 35.3068V35.1054C23.3848 34.9845 23.4521 34.9039 23.497 34.9039H26.3703C26.4376 34.9039 26.4825 35.0248 26.4825 35.1054V35.3068Z" fill="#F1F5F9"/>
<path d="M43.3053 34.2001C43.3053 33.868 43.036 33.5988 42.7039 33.5988H38.5523C38.2202 33.5988 37.9509 33.868 37.9509 34.2001V34.2811C37.9509 34.6133 38.2202 34.8825 38.5523 34.8825H42.7039C43.036 34.8825 43.3053 34.6133 43.3053 34.2811V34.2001Z" fill="#F9F9F9"/>
<path d="M41.0631 34.1365C41.0631 34.0311 40.9776 33.9457 40.8722 33.9457H39.7848C39.6794 33.9457 39.594 34.0311 39.594 34.1365C39.594 34.2419 39.6794 34.3273 39.7848 34.3273H40.8722C40.9776 34.3273 41.0631 34.2419 41.0631 34.1365Z" fill="#D6DFE8"/>
<path d="M42.9194 34.1365C42.9194 34.0311 42.8339 33.9457 42.7285 33.9457H42.5883C42.4829 33.9457 42.3975 34.0311 42.3975 34.1365C42.3975 34.2419 42.4829 34.3273 42.5883 34.3273H42.7285C42.8339 34.3273 42.9194 34.2419 42.9194 34.1365Z" fill="#D6DFE8"/>
<path d="M37.1505 36.0605C40.8539 36.0605 43.856 33.0583 43.856 29.355C43.856 25.6518 40.8539 22.6497 37.1505 22.6497C33.4472 22.6497 30.4451 25.6518 30.4451 29.355C30.4451 33.0583 33.4472 36.0605 37.1505 36.0605Z" fill="white"/>
<path d="M46.876 39.7108C46.6156 39.7108 46.3555 39.6068 46.1471 39.3725L41.8006 35.0258L41.6443 35.1299C40.2389 36.171 38.5991 36.7176 36.9334 36.7176C34.9293 36.7176 32.9251 35.9108 31.4416 34.5053C29.8799 33.0217 29.021 31.0176 29.021 28.8313C29.021 24.4847 32.5607 20.9449 36.9074 20.9449C39.8745 20.9449 42.4772 22.5066 43.8826 25.1614C45.2622 27.7902 45.08 30.8614 43.3883 33.334L43.2842 33.4902L47.6569 37.8628C48.0992 38.3054 47.9952 38.7477 47.917 38.9819C47.7089 39.3984 47.2925 39.7108 46.876 39.7108ZM36.9074 23.1052C33.732 23.1052 31.1813 25.682 31.1813 28.8313C31.1813 32.4231 34.1224 34.5834 36.9854 34.5834C38.7293 34.5834 40.317 33.8025 41.4362 32.3971C42.8158 30.6792 43.05 28.3628 42.0869 26.3587C41.0979 24.3545 39.1197 23.1052 36.9074 23.1052Z" fill="#133986"/>
<path d="M36.5201 30.4376C36.4901 30.3173 36.4901 30.197 36.4901 30.0467C36.4901 29.5355 36.7006 29.0845 37.2418 28.6936L37.6928 28.3628C37.9635 28.1523 38.0837 27.9118 38.0837 27.6111C38.0837 27.1901 37.783 26.7691 37.1516 26.7691C36.4901 26.7691 36.1894 27.3104 36.1894 27.8216C36.1894 27.9418 36.1894 28.032 36.2194 28.1222L35.0167 28.0922C34.9866 27.9719 34.9565 27.8216 34.9565 27.6712C34.9565 26.6489 35.7083 25.6866 37.1215 25.6866C38.5648 25.6866 39.3466 26.6188 39.3466 27.5509C39.3466 28.3027 38.9557 28.8138 38.4145 29.2047L38.0236 29.4753C37.6928 29.7159 37.5124 30.0166 37.5124 30.3774V30.4376H36.5201ZM37.0313 31.0389C37.4523 31.0389 37.783 31.3697 37.783 31.7907C37.783 32.2116 37.4523 32.5424 37.0313 32.5424C36.6103 32.5424 36.2796 32.2116 36.2796 31.7907C36.3097 31.3998 36.6103 31.0389 37.0313 31.0389Z" fill="#EB9700"/>
<defs>
<filter id="filter0_d_10081_68941" x="0.940918" y="-0.744629" width="63.1533" height="45.5513" filterUnits="userSpaceOnUse" color-interpolation-filters="sRGB">
<feFlood flood-opacity="0" result="BackgroundImageFix"/>
<feColorMatrix in="SourceAlpha" type="matrix" values="0 0 0 0 0 0 0 0 0 0 0 0 0 0 0 0 0 0 127 0" result="hardAlpha"/>
<feMorphology radius="4" operator="erode" in="SourceAlpha" result="effect1_dropShadow_10081_68941"/>
<feOffset dy="8"/>
<feGaussianBlur stdDeviation="12"/>
<feColorMatrix type="matrix" values="0 0 0 0 0 0 0 0 0 0.144828 0 0 0 0 0.45 0 0 0 0.06 0"/>
<feBlend mode="normal" in2="BackgroundImageFix" result="effect1_dropShadow_10081_68941"/>
<feBlend mode="normal" in="SourceGraphic" in2="effect1_dropShadow_10081_68941" result="shape"/>
</filter>
<filter id="filter1_d_10081_68941" x="0.940918" y="6.0094" width="63.1533" height="45.5513" filterUnits="userSpaceOnUse" color-interpolation-filters="sRGB">
<feFlood flood-opacity="0" result="BackgroundImageFix"/>
<feColorMatrix in="SourceAlpha" type="matrix" values="0 0 0 0 0 0 0 0 0 0 0 0 0 0 0 0 0 0 127 0" result="hardAlpha"/>
<feMorphology radius="4" operator="erode" in="SourceAlpha" result="effect1_dropShadow_10081_68941"/>
<feOffset dy="8"/>
<feGaussianBlur stdDeviation="12"/>
<feColorMatrix type="matrix" values="0 0 0 0 0 0 0 0 0 0.144828 0 0 0 0 0.45 0 0 0 0.06 0"/>
<feBlend mode="normal" in2="BackgroundImageFix" result="effect1_dropShadow_10081_68941"/>
<feBlend mode="normal" in="SourceGraphic" in2="effect1_dropShadow_10081_68941" result="shape"/>
</filter>
<filter id="filter2_d_10081_68941" x="0.940918" y="12.7633" width="63.1533" height="45.5513" filterUnits="userSpaceOnUse" color-interpolation-filters="sRGB">
<feFlood flood-opacity="0" result="BackgroundImageFix"/>
<feColorMatrix in="SourceAlpha" type="matrix" values="0 0 0 0 0 0 0 0 0 0 0 0 0 0 0 0 0 0 127 0" result="hardAlpha"/>
<feMorphology radius="4" operator="erode" in="SourceAlpha" result="effect1_dropShadow_10081_68941"/>
<feOffset dy="8"/>
<feGaussianBlur stdDeviation="12"/>
<feColorMatrix type="matrix" values="0 0 0 0 0 0 0 0 0 0.144828 0 0 0 0 0.45 0 0 0 0.06 0"/>
<feBlend mode="normal" in2="BackgroundImageFix" result="effect1_dropShadow_10081_68941"/>
<feBlend mode="normal" in="SourceGraphic" in2="effect1_dropShadow_10081_68941" result="shape"/>
</filter>
<filter id="filter3_d_10081_68941" x="0.940918" y="19.5171" width="63.1533" height="45.5513" filterUnits="userSpaceOnUse" color-interpolation-filters="sRGB">
<feFlood flood-opacity="0" result="BackgroundImageFix"/>
<feColorMatrix in="SourceAlpha" type="matrix" values="0 0 0 0 0 0 0 0 0 0 0 0 0 0 0 0 0 0 127 0" result="hardAlpha"/>
<feMorphology radius="4" operator="erode" in="SourceAlpha" result="effect1_dropShadow_10081_68941"/>
<feOffset dy="8"/>
<feGaussianBlur stdDeviation="12"/>
<feColorMatrix type="matrix" values="0 0 0 0 0 0 0 0 0 0.144828 0 0 0 0 0.45 0 0 0 0.06 0"/>
<feBlend mode="normal" in2="BackgroundImageFix" result="effect1_dropShadow_10081_68941"/>
<feBlend mode="normal" in="SourceGraphic" in2="effect1_dropShadow_10081_68941" result="shape"/>
</filter>
</defs>
</svg>
